{
  "accessors": [
    {
      "bufferView": 2,
      "componentType": 5126,
      "count": 3244,
      "max": [
        0.5823180079460144,
        0.16748499870300293,
        1.5765899419784546
      ],
      "min": [
        -0.5823180079460144,
        -0.1377120018005371,
        0.006844650022685528
      ],
      "type": "VEC3"
    },
    {
      "bufferView": 2,
      "byteOffset": 38928,
      "componentType": 5126,
      "count": 3244,
      "max": [
        0.9999957084655762,
        0.9999747276306152,
        0.9988595843315125
      ],
      "min": [
        -0.9999957084655762,
        -0.9996157288551331,
        -0.9994938969612122
      ],
      "type": "VEC3"
    },
    {
      "bufferView": 3,
      "componentType": 5126,
      "count": 3244,
      "max": [
        0.9999773502349854,
        0.9999404549598694,
        0.9994572401046753,
        1.0
      ],
      "min": [
        -0.9999774098396301,
        -0.9998587965965271,
        -0.9999476671218872,
        -1.0
      ],
      "type": "VEC4"
    },
    {
      "bufferView": 1,
      "componentType": 5126,
      "count": 3244,
      "max": [
        0.992484986782074,
        1.996243953704834
      ],
      "min": [
        0.011659899726510048,
        1.0126700401306152
      ],
      "type": "VEC2"
    },
    {
      "bufferView": 0,
      "componentType": 5125,
      "count": 15249,
      "type": "SCALAR"
    },
    {
      "bufferView": 2,
      "byteOffset": 77856,
      "componentType": 5126,
      "count": 2213,
      "max": [
        0.6141300201416016,
        0.08255679905414581,
        1.7947100400924683
      ],
      "min": [
        -0.6141300201416016,
        -0.12658199667930603,
        0.9460099935531616
      ],
      "type": "VEC3"
    },
    {
      "bufferView": 2,
      "byteOffset": 104412,
      "componentType": 5126,
      "count": 2213,
      "max": [
        0.9996355175971985,
        0.9998984932899475,
        0.9999986290931702
      ],
      "min": [
        -0.9996355175971985,
        -0.9999651908874512,
        -0.9982938766479492
      ],
      "type": "VEC3"
    },
    {
      "bufferView": 3,
      "byteOffset": 51904,
      "componentType": 5126,
      "count": 2213,
      "max": [
        0.999475359916687,
        0.9999986290931702,
        0.9997345209121704,
        1.0
      ],
      "min": [
        -0.9996265172958374,
        -0.9996498823165894,
        -0.9985580444335938,
        -1.0
      ],
      "type": "VEC4"
    },
    {
      "bufferView": 1,
      "byteOffset": 25952,
      "componentType": 5126,
      "count": 2213,
      "max": [
        0.3852140009403229,
        1.989874005317688
      ],
      "min": [
        0.0062067098915576935,
        1.3276770114898682
      ],
      "type": "VEC2"
    },
    {
      "bufferView": 0,
      "byteOffset": 60996,
      "componentType": 5125,
      "count": 10818,
      "type": "SCALAR"
    },
    {
      "bufferView": 2,
      "byteOffset": 130968,
      "componentType": 5126,
      "count": 2266,
      "max": [
        0.3959670066833496,
        0.14413000643253326,
        1.535599946975708
      ],
      "min": [
        -0.3959670066833496,
        -0.13266800343990326,
        0.1176220029592514
      ],
      "type": "VEC3"
    },
    {
      "bufferView": 2,
      "byteOffset": 158160,
      "componentType": 5126,
      "count": 2266,
      "max": [
        0.9998922944068909,
        0.9999747276306152,
        0.9993302226066589
      ],
      "min": [
        -0.9998922944068909,
        -0.9999979734420776,
        -0.9991171956062317
      ],
      "type": "VEC3"
    },
    {
      "bufferView": 3,
      "byteOffset": 87312,
      "componentType": 5126,
      "count": 2266,
      "max": [
        0.9998730421066284,
        0.9999354481697083,
        0.9999979734420776,
        1.0
      ],
      "min": [
        -0.9998729228973389,
        -0.9999540448188782,
        -0.9995508193969727,
        -1.0
      ],
      "type": "VEC4"
    },
    {
      "bufferView": 1,
      "byteOffset": 43656,
      "componentType": 5126,
      "count": 2266,
      "max": [
        0.992484986782074,
        1.996243953704834
      ],
      "min": [
        0.11423899978399277,
        1.006903052330017
      ],
      "type": "VEC2"
    },
    {
      "bufferView": 0,
      "byteOffset": 104268,
      "componentType": 5125,
      "count": 11403,
      "type": "SCALAR"
    },
    {
      "bufferView": 2,
      "byteOffset": 185352,
      "componentType": 5126,
      "count": 134,
      "max": [
        0.05384499952197075,
        -0.053962308913469315,
        1.699120044708252
      ],
      "min": [
        -0.05384499952197075,
        -0.07491990923881531,
        1.659980058670044
      ],
      "type": "VEC3"
    },
    {
      "bufferView": 2,
      "byteOffset": 186960,
      "componentType": 5126,
      "count": 134,
      "max": [
        0.9748263955116272,
        -0.2052796334028244,
        0.9747607111930847
      ],
      "min": [
        -0.9748249053955078,
        -1.0,
        -0.974628210067749
      ],
      "type": "VEC3"
    },
    {
      "bufferView": 3,
      "byteOffset": 123568,
      "componentType": 5126,
      "count": 134,
      "max": [
        0.9950326681137085,
        0.9786322116851807,
        0.3611450791358948,
        1.0
      ],
      "min": [
        -0.9950330257415771,
        -0.9786364436149597,
        -0.20385193824768066,
        -1.0
      ],
      "type": "VEC4"
    },
    {
      "bufferView": 1,
      "byteOffset": 61784,
      "componentType": 5126,
      "count": 134,
      "max": [
        0.4102790057659149,
        1.530236005783081
      ],
      "min": [
        0.2886129915714264,
        1.4089000225067139
      ],
      "type": "VEC2"
    },
    {
      "bufferView": 0,
      "byteOffset": 149880,
      "componentType": 5125,
      "count": 720,
      "type": "SCALAR"
    },
    {
      "bufferView": 2,
      "byteOffset": 188568,
      "componentType": 5126,
      "count": 1065,
      "max": [
        0.13228200376033783,
        0.1630840003490448,
        1.8185700178146362
      ],
      "min": [
        -0.13212600350379944,
        -0.09445150941610336,
        1.4323699474334717
      ],
      "type": "VEC3"
    },
    {
      "bufferView": 2,
      "byteOffset": 201348,
      "componentType": 5126,
      "count": 1065,
      "max": [
        0.9995118379592896,
        0.9970524907112122,
        0.994608998298645
      ],
      "min": [
        -0.9986634254455566,
        -0.9984657168388367,
        -0.9966031908988953
      ],
      "type": "VEC3"
    },
    {
      "bufferView": 3,
      "byteOffset": 125712,
      "componentType": 5126,
      "count": 1065,
      "max": [
        0.999709963798523,
        0.9998542070388794,
        0.9857138991355896,
        1.0
      ],
      "min": [
        -0.9984830021858215,
        -0.9988981485366821,
        -0.9832342863082886,
        -1.0
      ],
      "type": "VEC4"
    },
    {
      "bufferView": 1,
      "byteOffset": 62856,
      "componentType": 5126,
      "count": 1065,
      "max": [
        0.706712007522583,
        1.3605220317840576
      ],
      "min": [
        0.006929839961230755,
        1.0012309551239014
      ],
      "type": "VEC2"
    },
    {
      "bufferView": 0,
      "byteOffset": 152760,
      "componentType": 5125,
      "count": 5268,
      "type": "SCALAR"
    }
  ],
  "asset": {
    "extras": {
      "author": "Shivam.Yadav (https://sketchfab.com/Shivam.Yadav)",
      "license": "CC-BY-4.0 (http://creativecommons.org/licenses/by/4.0/)",
      "source": "https://sketchfab.com/3d-models/captain-marvel-7675732842ff4798ba3d9665f1debd04",
      "title": "Captain Marvel"
    },
    "generator": "Sketchfab-12.66.0",
    "version": "2.0"
  },
  "bufferViews": [
    {
      "buffer": 0,
      "byteLength": 173832,
      "name": "floatBufferViews",
      "target": 34963
    },
    {
      "buffer": 0,
      "byteLength": 71376,
      "byteOffset": 173832,
      "byteStride": 8,
      "name": "floatBufferViews",
      "target": 34962
    },
    {
      "buffer": 0,
      "byteLength": 214128,
      "byteOffset": 245208,
      "byteStride": 12,
      "name": "floatBufferViews",
      "target": 34962
    },
    {
      "buffer": 0,
      "byteLength": 142752,
      "byteOffset": 459336,
      "byteStride": 16,
      "name": "floatBufferViews",
      "target": 34962
    }
  ],
  "buffers": [
    {
      "byteLength": 602088,
      "uri": "scene.bin"
    }
  ],
  "images": [
    {
      "uri": "textures/Model001_Material001_baseColor.png"
    },
    {
      "uri": "textures/Model001_Material001_normal.png"
    },
    {
      "uri": "textures/Model001_Material004_emissive.png"
    }
  ],
  "materials": [
    {
      "doubleSided": true,
      "name": "Model001_Material001",
      "normalTexture": {
        "index": 1
      },
      "pbrMetallicRoughness": {
        "baseColorTexture": {
          "index": 0
        },
        "metallicFactor": 0.0,
        "roughnessFactor": 0.6
      }
    },
    {
      "doubleSided": true,
      "name": "Model001_Material002",
      "normalTexture": {
        "index": 1
      },
      "pbrMetallicRoughness": {
        "baseColorTexture": {
          "index": 0
        },
        "metallicFactor": 0.0
      }
    },
    {
      "doubleSided": true,
      "name": "Model001_Material003",
      "normalTexture": {
        "index": 1
      },
      "pbrMetallicRoughness": {
        "baseColorTexture": {
          "index": 0
        },
        "metallicFactor": 0.0,
        "roughnessFactor": 0.6
      }
    },
    {
      "doubleSided": true,
      "emissiveFactor": [
        1.0,
        1.0,
        1.0
      ],
      "emissiveTexture": {
        "index": 2
      },
      "name": "Model001_Material004",
      "normalTexture": {
        "index": 1
      },
      "pbrMetallicRoughness": {
        "baseColorTexture": {
          "index": 0
        },
        "metallicFactor": 0.0,
        "roughnessFactor": 0.6
      }
    },
    {
      "doubleSided": true,
      "emissiveFactor": [
        1.0,
        1.0,
        1.0
      ],
      "emissiveTexture": {
        "index": 2
      },
      "name": "Model001_Material005",
      "normalTexture": {
        "index": 1
      },
      "pbrMetallicRoughness": {
        "baseColorTexture": {
          "index": 0
        },
        "metallicFactor": 0.0,
        "roughnessFactor": 0.6
      }
    }
  ],
  "meshes": [
    {
      "name": "Object_0",
      "primitives": [
        {
          "attributes": {
            "NORMAL": 1,
            "POSITION": 0,
            "TANGENT": 2,
            "TEXCOORD_0": 3
          },
          "indices": 4,
          "material": 0,
          "mode": 4
        }
      ]
    },
    {
      "name": "Object_1",
      "primitives": [
        {
          "attributes": {
            "NORMAL": 6,
            "POSITION": 5,
            "TANGENT": 7,
            "TEXCOORD_0": 8
          },
          "indices": 9,
          "material": 1,
          "mode": 4
        }
      ]
    },
    {
      "name": "Object_2",
      "primitives": [
        {
          "attributes": {
            "NORMAL": 11,
            "POSITION": 10,
            "TANGENT": 12,
            "TEXCOORD_0": 13
          },
          "indices": 14,
          "material": 2,
          "mode": 4
        }
      ]
    },
    {
      "name": "Object_3",
      "primitives": [
        {
          "attributes": {
            "NORMAL": 16,
            "POSITION": 15,
            "TANGENT": 17,
            "TEXCOORD_0": 18
          },
          "indices": 19,
          "material": 3,
          "mode": 4
        }
      ]
    },
    {
      "name": "Object_4",
      "primitives": [
        {
          "attributes": {
            "NORMAL": 21,
            "POSITION": 20,
            "TANGENT": 22,
            "TEXCOORD_0": 23
          },
          "indices": 24,
          "material": 4,
          "mode": 4
        }
      ]
    }
  ],
  "nodes": [
    {
      "children": [
        1
      ],
      "matrix": [
        0.9988431930541992,
        0.0,
        0.0,
        0.0,
        0.0,
        2.2178774218377644e-16,
        -0.9988431930541992,
        0.0,
        0.0,
        0.9988431930541992,
        2.2178774218377644e-16,
        0.0,
        0.0,
        0.0,
        0.0,
        1.0
      ],
      "name": "Sketchfab_model"
    },
    {
      "children": [
        2,
        3,
        4,
        5,
        6
      ],
      "name": "cm.obj.cleaner.materialmerger.gles"
    },
    {
      "mesh": 0,
      "name": "Object_2"
    },
    {
      "mesh": 1,
      "name": "Object_3"
    },
    {
      "mesh": 2,
      "name": "Object_4"
    },
    {
      "mesh": 3,
      "name": "Object_5"
    },
    {
      "mesh": 4,
      "name": "Object_6"
    }
  ],
  "samplers": [
    {
      "magFilter": 9729,
      "minFilter": 9987,
      "wrapS": 10497,
      "wrapT": 10497
    }
  ],
  "scene": 0,
  "scenes": [
    {
      "name": "Sketchfab_Scene",
      "nodes": [
        0
      ]
    }
  ],
  "textures": [
    {
      "sampler": 0,
      "source": 0
    },
    {
      "sampler": 0,
      "source": 1
    },
    {
      "sampler": 0,
      "source": 2
    }
  ]
}
