{
  "accessors": [
    {
      "bufferView": 2,
      "componentType": 5126,
      "count": 295,
      "max": [
        64.37594604492188,
        64.60885620117188,
        43.9376220703125
      ],
      "min": [
        -66.48748779296875,
        -62.984107971191406,
        -10.267961502075195
      ],
      "type": "VEC3"
    },
    {
      "bufferView": 2,
      "byteOffset": 3540,
      "componentType": 5126,
      "count": 295,
      "max": [
        0.9783294200897217,
        0.9941217303276062,
        1.0
      ],
      "min": [
        -0.9767374992370605,
        -0.9809078574180603,
        -0.999894380569458
      ],
      "type": "VEC3"
    },
    {
      "bufferView": 1,
      "componentType": 5126,
      "count": 295,
      "max": [
        1.0,
        1.0
      ],
      "min": [
        0.0,
        0.0
      ],
      "type": "VEC2"
    },
    {
      "bufferView": 0,
      "componentType": 5125,
      "count": 1716,
      "type": "SCALAR"
    },
    {
      "bufferView": 2,
      "byteOffset": 7080,
      "componentType": 5126,
      "count": 228,
      "max": [
        61.836936950683594,
        49.167572021484375,
        56.41579055786133
      ],
      "min": [
        -45.37916564941406,
        -51.52557373046875,
        2.55017352104187
      ],
      "type": "VEC3"
    },
    {
      "bufferView": 2,
      "byteOffset": 9816,
      "componentType": 5126,
      "count": 228,
      "max": [
        0.9920043349266052,
        0.9930392503738403,
        0.9956616163253784
      ],
      "min": [
        -0.9928817749023438,
        -0.9867703318595886,
        -0.9982501268386841
      ],
      "type": "VEC3"
    },
    {
      "bufferView": 1,
      "byteOffset": 2360,
      "componentType": 5126,
      "count": 228,
      "max": [
        1.0,
        1.0
      ],
      "min": [
        0.0,
        0.0
      ],
      "type": "VEC2"
    },
    {
      "bufferView": 0,
      "byteOffset": 6864,
      "componentType": 5125,
      "count": 1056,
      "type": "SCALAR"
    },
    {
      "bufferView": 2,
      "byteOffset": 12552,
      "componentType": 5126,
      "count": 295,
      "max": [
        64.37594604492188,
        60.38078308105469,
        43.9376220703125
      ],
      "min": [
        -66.10020446777344,
        -59.446502685546875,
        -10.267961502075195
      ],
      "type": "VEC3"
    },
    {
      "bufferView": 2,
      "byteOffset": 16092,
      "componentType": 5126,
      "count": 295,
      "max": [
        0.9783294200897217,
        0.994109570980072,
        1.0
      ],
      "min": [
        -0.9810373187065125,
        -0.9827940464019775,
        -0.9999741315841675
      ],
      "type": "VEC3"
    },
    {
      "bufferView": 1,
      "byteOffset": 4184,
      "componentType": 5126,
      "count": 295,
      "max": [
        1.0,
        1.0
      ],
      "min": [
        0.0,
        0.0
      ],
      "type": "VEC2"
    },
    {
      "bufferView": 0,
      "byteOffset": 11088,
      "componentType": 5125,
      "count": 1716,
      "type": "SCALAR"
    },
    {
      "bufferView": 2,
      "byteOffset": 19632,
      "componentType": 5126,
      "count": 295,
      "max": [
        64.37594604492188,
        60.38078308105469,
        43.9376220703125
      ],
      "min": [
        -58.565765380859375,
        -44.50828552246094,
        -10.267961502075195
      ],
      "type": "VEC3"
    },
    {
      "bufferView": 2,
      "byteOffset": 23172,
      "componentType": 5126,
      "count": 295,
      "max": [
        0.9783294200897217,
        0.9973423480987549,
        1.0
      ],
      "min": [
        -0.9841212630271912,
        -0.977929949760437,
        -0.9999741315841675
      ],
      "type": "VEC3"
    },
    {
      "bufferView": 1,
      "byteOffset": 6544,
      "componentType": 5126,
      "count": 295,
      "max": [
        1.0,
        1.0
      ],
      "min": [
        0.0,
        0.0
      ],
      "type": "VEC2"
    },
    {
      "bufferView": 0,
      "byteOffset": 17952,
      "componentType": 5125,
      "count": 1716,
      "type": "SCALAR"
    },
    {
      "bufferView": 2,
      "byteOffset": 26712,
      "componentType": 5126,
      "count": 183,
      "max": [
        56.617366790771484,
        59.50586700439453,
        44.85890197753906
      ],
      "min": [
        -56.931236267089844,
        -57.1204948425293,
        -9.543426513671875
      ],
      "type": "VEC3"
    },
    {
      "bufferView": 2,
      "byteOffset": 28908,
      "componentType": 5126,
      "count": 183,
      "max": [
        0.9890701174736023,
        0.9741312861442566,
        0.9994516968727112
      ],
      "min": [
        -0.983345627784729,
        -0.9828698635101318,
        -0.9999272227287292
      ],
      "type": "VEC3"
    },
    {
      "bufferView": 1,
      "byteOffset": 8904,
      "componentType": 5126,
      "count": 183,
      "max": [
        1.0,
        1.0
      ],
      "min": [
        0.0,
        0.046875
      ],
      "type": "VEC2"
    },
    {
      "bufferView": 0,
      "byteOffset": 24816,
      "componentType": 5125,
      "count": 1020,
      "type": "SCALAR"
    },
    {
      "bufferView": 2,
      "byteOffset": 31104,
      "componentType": 5126,
      "count": 208,
      "max": [
        50.81669616699219,
        42.50274658203125,
        39.44321060180664
      ],
      "min": [
        -50.33300018310547,
        -45.77668380737305,
        -1.1886281967163086
      ],
      "type": "VEC3"
    },
    {
      "bufferView": 2,
      "byteOffset": 33600,
      "componentType": 5126,
      "count": 208,
      "max": [
        0.9850466847419739,
        0.9808744192123413,
        0.9997982978820801
      ],
      "min": [
        -0.9903775453567505,
        -0.9873249530792236,
        -0.9993432760238647
      ],
      "type": "VEC3"
    },
    {
      "bufferView": 1,
      "byteOffset": 10368,
      "componentType": 5126,
      "count": 208,
      "max": [
        1.0,
        1.0
      ],
      "min": [
        0.0,
        0.125
      ],
      "type": "VEC2"
    },
    {
      "bufferView": 0,
      "byteOffset": 28896,
      "componentType": 5125,
      "count": 1194,
      "type": "SCALAR"
    },
    {
      "bufferView": 3,
      "componentType": 5126,
      "count": 101,
      "max": [
        3.3333332538604736
      ],
      "min": [
        0.0
      ],
      "type": "SCALAR"
    },
    {
      "bufferView": 4,
      "componentType": 5126,
      "count": 101,
      "max": [
        0.49999725818634033,
        0.49999725818634033,
        0.9994560480117798,
        1.0
      ],
      "min": [
        -0.4999971389770508,
        -0.4999971389770508,
        0.0,
        0.0005439319647848606
      ],
      "type": "VEC4"
    },
    {
      "bufferView": 3,
      "byteOffset": 404,
      "componentType": 5126,
      "count": 101,
      "max": [
        3.3333332538604736
      ],
      "min": [
        0.0
      ],
      "type": "SCALAR"
    },
    {
      "bufferView": 4,
      "byteOffset": 1616,
      "componentType": 5126,
      "count": 101,
      "max": [
        0.9994560480117798,
        0.49999722838401794,
        0.49999716877937317,
        1.0
      ],
      "min": [
        6.657902673623539e-08,
        -0.49999722838401794,
        -0.49999716877937317,
        0.0005438607768155634
      ],
      "type": "VEC4"
    },
    {
      "bufferView": 3,
      "byteOffset": 808,
      "componentType": 5126,
      "count": 101,
      "max": [
        3.3333332538604736
      ],
      "min": [
        0.0
      ],
      "type": "SCALAR"
    },
    {
      "bufferView": 4,
      "byteOffset": 3232,
      "componentType": 5126,
      "count": 101,
      "max": [
        0.49999722838401794,
        0.9994560480117798,
        0.49999716877937317,
        1.0
      ],
      "min": [
        -0.499997079372406,
        0.0,
        -0.4999973475933075,
        0.0005439304513856769
      ],
      "type": "VEC4"
    },
    {
      "bufferView": 3,
      "byteOffset": 1212,
      "componentType": 5126,
      "count": 101,
      "max": [
        3.3333332538604736
      ],
      "min": [
        0.0
      ],
      "type": "SCALAR"
    },
    {
      "bufferView": 4,
      "byteOffset": 4848,
      "componentType": 5126,
      "count": 101,
      "max": [
        0.49999725818634033,
        0.9994560480117798,
        0.4999971389770508,
        1.0
      ],
      "min": [
        -0.4999971389770508,
        0.0,
        -0.49999725818634033,
        0.0005439319647848606
      ],
      "type": "VEC4"
    },
    {
      "bufferView": 3,
      "byteOffset": 1616,
      "componentType": 5126,
      "count": 101,
      "max": [
        3.3333332538604736
      ],
      "min": [
        0.0
      ],
      "type": "SCALAR"
    },
    {
      "bufferView": 4,
      "byteOffset": 6464,
      "componentType": 5126,
      "count": 101,
      "max": [
        0.49999722838401794,
        0.9994560480117798,
        0.49999716877937317,
        1.0
      ],
      "min": [
        -0.499997079372406,
        0.0,
        -0.4999973475933075,
        0.0005439304513856769
      ],
      "type": "VEC4"
    },
    {
      "bufferView": 3,
      "byteOffset": 2020,
      "componentType": 5126,
      "count": 101,
      "max": [
        3.3333332538604736
      ],
      "min": [
        0.0
      ],
      "type": "SCALAR"
    },
    {
      "bufferView": 4,
      "byteOffset": 8080,
      "componentType": 5126,
      "count": 101,
      "max": [
        0.4999971389770508,
        0.9994560480117798,
        0.4999971389770508,
        1.0
      ],
      "min": [
        -0.49999725818634033,
        -0.4609875977039337,
        -0.49999725818634033,
        -0.4983264207839966
      ],
      "type": "VEC4"
    }
  ],
  "animations": [
    {
      "channels": [
        {
          "sampler": 0,
          "target": {
            "node": 4,
            "path": "rotation"
          }
        },
        {
          "sampler": 1,
          "target": {
            "node": 7,
            "path": "rotation"
          }
        },
        {
          "sampler": 2,
          "target": {
            "node": 10,
            "path": "rotation"
          }
        },
        {
          "sampler": 3,
          "target": {
            "node": 13,
            "path": "rotation"
          }
        },
        {
          "sampler": 4,
          "target": {
            "node": 16,
            "path": "rotation"
          }
        },
        {
          "sampler": 5,
          "target": {
            "node": 19,
            "path": "rotation"
          }
        }
      ],
      "name": "Take 001",
      "samplers": [
        {
          "input": 24,
          "interpolation": "LINEAR",
          "output": 25
        },
        {
          "input": 26,
          "interpolation": "LINEAR",
          "output": 27
        },
        {
          "input": 28,
          "interpolation": "LINEAR",
          "output": 29
        },
        {
          "input": 30,
          "interpolation": "LINEAR",
          "output": 31
        },
        {
          "input": 32,
          "interpolation": "LINEAR",
          "output": 33
        },
        {
          "input": 34,
          "interpolation": "LINEAR",
          "output": 35
        }
      ]
    }
  ],
  "asset": {
    "extras": {
      "author": "Anthony Yanez (https://sketchfab.com/paulyanez)",
      "license": "CC-BY-4.0 (http://creativecommons.org/licenses/by/4.0/)",
      "source": "https://sketchfab.com/3d-models/infinity-stones-avengers-e195055fa4a24e07bacfc16089858695",
      "title": "Infinity Stones (Avengers)"
    },
    "generator": "Sketchfab-12.66.0",
    "version": "2.0"
  },
  "bufferViews": [
    {
      "buffer": 0,
      "byteLength": 33672,
      "name": "floatBufferViews",
      "target": 34963
    },
    {
      "buffer": 0,
      "byteLength": 12032,
      "byteOffset": 33672,
      "byteStride": 8,
      "name": "floatBufferViews",
      "target": 34962
    },
    {
      "buffer": 0,
      "byteLength": 36096,
      "byteOffset": 45704,
      "byteStride": 12,
      "name": "floatBufferViews",
      "target": 34962
    },
    {
      "buffer": 0,
      "byteLength": 2424,
      "byteOffset": 81800,
      "name": "floatBufferViews"
    },
    {
      "buffer": 0,
      "byteLength": 9696,
      "byteOffset": 84224,
      "byteStride": 16,
      "name": "floatBufferViews"
    }
  ],
  "buffers": [
    {
      "byteLength": 93920,
      "uri": "scene.bin"
    }
  ],
  "materials": [
    {
      "doubleSided": true,
      "emissiveFactor": [
        1.0,
        1.0,
        0.7612783815032745
      ],
      "name": "02_-_Default",
      "pbrMetallicRoughness": {
        "baseColorFactor": [
          1.0,
          0.8470590000000003,
          0.0,
          1.0
        ],
        "roughnessFactor": 0.22240013349999999
      }
    },
    {
      "doubleSided": true,
      "emissiveFactor": [
        0.11857605368031757,
        0.2564870767682069,
        1.0
      ],
      "name": "03_-_Default",
      "pbrMetallicRoughness": {
        "baseColorFactor": [
          0.0,
          0.06274510000000012,
          0.521569,
          1.0
        ],
        "roughnessFactor": 0.30118801230000003
      }
    },
    {
      "doubleSided": true,
      "emissiveFactor": [
        1.0,
        0.3451661773049892,
        0.3451661773049892
      ],
      "name": "07_-_Default",
      "pbrMetallicRoughness": {
        "baseColorFactor": [
          0.709804,
          0.0,
          0.0,
          1.0
        ],
        "roughnessFactor": 0.18603649720000004
      }
    },
    {
      "doubleSided": true,
      "emissiveFactor": [
        1.0,
        0.3506473907985954,
        1.0
      ],
      "name": "08_-_Default",
      "pbrMetallicRoughness": {
        "baseColorFactor": [
          0.14901999999999987,
          0.0,
          0.23529399999999995,
          1.0
        ],
        "roughnessFactor": 0.25876376990000005
      }
    },
    {
      "doubleSided": true,
      "emissiveFactor": [
        0.7013007351071445,
        1.0,
        0.5656778520521387
      ],
      "name": "09_-_Default",
      "pbrMetallicRoughness": {
        "baseColorFactor": [
          0.019607799999999984,
          0.40784300000000007,
          0.0,
          1.0
        ],
        "roughnessFactor": 0.30724861839999995
      }
    },
    {
      "doubleSided": true,
      "emissiveFactor": [
        1.0,
        0.35743960166081523,
        0.0
      ],
      "name": "13_-_Default",
      "pbrMetallicRoughness": {
        "baseColorFactor": [
          1.0,
          0.470588,
          0.0,
          1.0
        ],
        "roughnessFactor": 0.270884982
      }
    }
  ],
  "meshes": [
    {
      "name": "Mind Stone_02 - Default_0",
      "primitives": [
        {
          "attributes": {
            "NORMAL": 1,
            "POSITION": 0,
            "TEXCOORD_0": 2
          },
          "indices": 3,
          "material": 0,
          "mode": 4
        }
      ]
    },
    {
      "name": "Space Stone_03 - Default_0",
      "primitives": [
        {
          "attributes": {
            "NORMAL": 5,
            "POSITION": 4,
            "TEXCOORD_0": 6
          },
          "indices": 7,
          "material": 1,
          "mode": 4
        }
      ]
    },
    {
      "name": "Reality Stone_07 - Default_0",
      "primitives": [
        {
          "attributes": {
            "NORMAL": 9,
            "POSITION": 8,
            "TEXCOORD_0": 10
          },
          "indices": 11,
          "material": 2,
          "mode": 4
        }
      ]
    },
    {
      "name": "Power Stone_08 - Default_0",
      "primitives": [
        {
          "attributes": {
            "NORMAL": 13,
            "POSITION": 12,
            "TEXCOORD_0": 14
          },
          "indices": 15,
          "material": 3,
          "mode": 4
        }
      ]
    },
    {
      "name": "Time Stone_09 - Default_0",
      "primitives": [
        {
          "attributes": {
            "NORMAL": 17,
            "POSITION": 16,
            "TEXCOORD_0": 18
          },
          "indices": 19,
          "material": 4,
          "mode": 4
        }
      ]
    },
    {
      "name": "Soul Stone_13 - Default_0",
      "primitives": [
        {
          "attributes": {
            "NORMAL": 21,
            "POSITION": 20,
            "TEXCOORD_0": 22
          },
          "indices": 23,
          "material": 5,
          "mode": 4
        }
      ]
    }
  ],
  "nodes": [
    {
      "children": [
        1
      ],
      "matrix": [
        1.0,
        0.0,
        0.0,
        0.0,
        0.0,
        2.220446049250313e-16,
        -1.0,
        0.0,
        0.0,
        1.0,
        2.220446049250313e-16,
        0.0,
        0.0,
        0.0,
        0.0,
        1.0
      ],
      "name": "Sketchfab_model"
    },
    {
      "children": [
        2
      ],
      "matrix": [
        1.0,
        0.0,
        0.0,
        0.0,
        0.0,
        0.0,
        1.0,
        0.0,
        0.0,
        -1.0,
        0.0,
        0.0,
        0.0,
        0.0,
        0.0,
        1.0
      ],
      "name": "6b19eb80deb44c4faf8660eac0b4bc05.fbx"
    },
    {
      "children": [
        3
      ],
      "name": "Object_2"
    },
    {
      "children": [
        4,
        7,
        10,
        13,
        16,
        19
      ],
      "name": "RootNode"
    },
    {
      "children": [
        5
      ],
      "name": "Mind Stone",
      "rotation": [
        8.146034247147327e-08,
        0.0,
        0.0,
        1.0
      ],
      "translation": [
        -304.41357421875,
        248.79563903808594,
        1.1220626831054688
      ]
    },
    {
      "children": [
        6
      ],
      "matrix": [
        1.0,
        0.0,
        -0.0,
        0.0,
        0.0,
        1.0,
        0.0,
        0.0,
        0.0,
        0.0,
        1.0,
        0.0,
        1.0557708740234375,
        -0.8123711347579956,
        -16.83483123779297,
        1.0
      ],
      "name": "Object_5"
    },
    {
      "mesh": 0,
      "name": "Mind Stone_02 - Default_0"
    },
    {
      "children": [
        8
      ],
      "name": "Space Stone",
      "rotation": [
        8.146034247147327e-08,
        0.0,
        0.0,
        1.0
      ],
      "translation": [
        -512.9469604492188,
        249.6833953857422,
        1.1220626831054688
      ]
    },
    {
      "children": [
        9
      ],
      "matrix": [
        1.0,
        0.0,
        -0.0,
        0.0,
        0.0,
        1.0,
        0.0,
        0.0,
        0.0,
        0.0,
        1.0,
        0.0,
        -8.228885650634766,
        1.178999900817871,
        -29.482982635498047,
        1.0
      ],
      "name": "Object_8"
    },
    {
      "mesh": 1,
      "name": "Space Stone_03 - Default_0"
    },
    {
      "children": [
        11
      ],
      "name": "Reality Stone",
      "rotation": [
        8.146034247147327e-08,
        0.0,
        0.0,
        1.0
      ],
      "translation": [
        -103.21332550048828,
        248.45040893554688,
        1.1220626831054688
      ]
    },
    {
      "children": [
        12
      ],
      "matrix": [
        1.0,
        0.0,
        -0.0,
        0.0,
        0.0,
        1.0,
        0.0,
        0.0,
        0.0,
        0.0,
        1.0,
        0.0,
        0.8621292114257813,
        -0.4671391248703003,
        -16.83483123779297,
        1.0
      ],
      "name": "Object_11"
    },
    {
      "mesh": 2,
      "name": "Reality Stone_07 - Default_0"
    },
    {
      "children": [
        14
      ],
      "name": "Power Stone",
      "rotation": [
        8.146034247147327e-08,
        0.0,
        0.0,
        1.0
      ],
      "translation": [
        114.83122253417969,
        255.91952514648438,
        1.1220626831054688
      ]
    },
    {
      "children": [
        15
      ],
      "matrix": [
        1.0,
        0.0,
        -0.0,
        0.0,
        0.0,
        1.0,
        0.0,
        0.0,
        0.0,
        0.0,
        1.0,
        0.0,
        -2.90509033203125,
        -7.936247825622559,
        -16.834829330444336,
        1.0
      ],
      "name": "Object_14"
    },
    {
      "mesh": 3,
      "name": "Power Stone_08 - Default_0"
    },
    {
      "children": [
        17
      ],
      "name": "Time Stone",
      "rotation": [
        8.146034247147327e-08,
        0.0,
        0.0,
        1.0
      ],
      "translation": [
        327.25030517578125,
        249.17596435546875,
        1.1220645904541016
      ]
    },
    {
      "children": [
        18
      ],
      "matrix": [
        1.0,
        0.0,
        -0.0,
        0.0,
        0.0,
        1.0,
        0.0,
        0.0,
        0.0,
        0.0,
        1.0,
        0.0,
        0.1569347381591797,
        -1.1926851272583008,
        -17.657739639282227,
        1.0
      ],
      "name": "Object_17"
    },
    {
      "mesh": 4,
      "name": "Time Stone_09 - Default_0"
    },
    {
      "children": [
        20
      ],
      "name": "Soul Stone",
      "rotation": [
        8.146034247147327e-08,
        0.0,
        0.0,
        1.0
      ],
      "translation": [
        526.6787109375,
        246.34629821777344,
        1.1220626831054688
      ]
    },
    {
      "children": [
        21
      ],
      "matrix": [
        1.0,
        0.0,
        -0.0,
        0.0,
        0.0,
        1.0,
        0.0,
        0.0,
        0.0,
        0.0,
        1.0,
        0.0,
        -0.24184799194335938,
        1.6369693279266357,
        -19.127288818359375,
        1.0
      ],
      "name": "Object_20"
    },
    {
      "mesh": 5,
      "name": "Soul Stone_13 - Default_0"
    }
  ],
  "scene": 0,
  "scenes": [
    {
      "name": "Sketchfab_Scene",
      "nodes": [
        0
      ]
    }
  ]
}
