{
  "accessors": [
    {
      "bufferView": 2,
      "componentType": 5126,
      "count": 956,
      "max": [
        0.6351000070571899,
        1.8963000774383545,
        -1.1710000038146973
      ],
      "min": [
        -0.20489999651908875,
        0.0010000000474974513,
        -2.325200080871582
      ],
      "type": "VEC3"
    },
    {
      "bufferView": 2,
      "byteOffset": 11472,
      "componentType": 5126,
      "count": 956,
      "max": [
        0.9964364767074585,
        0.9992655515670776,
        0.9991846084594727
      ],
      "min": [
        -0.9992020130157471,
        -1.0,
        -0.9995118975639343
      ],
      "type": "VEC3"
    },
    {
      "bufferView": 1,
      "componentType": 5126,
      "count": 956,
      "max": [
        0.9937999844551086,
        0.9952999949455261
      ],
      "min": [
        0.003599999938160181,
        0.0031999999191612005
      ],
      "type": "VEC2"
    },
    {
      "bufferView": 1,
      "byteOffset": 7648,
      "componentType": 5126,
      "count": 956,
      "max": [
        0.9937999844551086,
        0.9952999949455261
      ],
      "min": [
        0.003599999938160181,
        0.0031999999191612005
      ],
      "type": "VEC2"
    },
    {
      "bufferView": 1,
      "byteOffset": 15296,
      "componentType": 5126,
      "count": 956,
      "max": [
        0.9937999844551086,
        0.9952999949455261
      ],
      "min": [
        0.003599999938160181,
        0.0031999999191612005
      ],
      "type": "VEC2"
    },
    {
      "bufferView": 1,
      "byteOffset": 22944,
      "componentType": 5126,
      "count": 956,
      "max": [
        0.9937999844551086,
        0.9952999949455261
      ],
      "min": [
        0.003599999938160181,
        0.0031999999191612005
      ],
      "type": "VEC2"
    },
    {
      "bufferView": 1,
      "byteOffset": 30592,
      "componentType": 5126,
      "count": 956,
      "max": [
        0.9937999844551086,
        0.9952999949455261
      ],
      "min": [
        0.003599999938160181,
        0.0031999999191612005
      ],
      "type": "VEC2"
    },
    {
      "bufferView": 1,
      "byteOffset": 38240,
      "componentType": 5126,
      "count": 956,
      "max": [
        0.9937999844551086,
        0.9952999949455261
      ],
      "min": [
        0.003599999938160181,
        0.0031999999191612005
      ],
      "type": "VEC2"
    },
    {
      "bufferView": 1,
      "byteOffset": 45888,
      "componentType": 5126,
      "count": 956,
      "max": [
        0.9937999844551086,
        0.9952999949455261
      ],
      "min": [
        0.003599999938160181,
        0.0031999999191612005
      ],
      "type": "VEC2"
    },
    {
      "bufferView": 1,
      "byteOffset": 53536,
      "componentType": 5126,
      "count": 956,
      "max": [
        0.9937999844551086,
        0.9952999949455261
      ],
      "min": [
        0.003599999938160181,
        0.0031999999191612005
      ],
      "type": "VEC2"
    },
    {
      "bufferView": 1,
      "byteOffset": 61184,
      "componentType": 5126,
      "count": 956,
      "max": [
        0.9937999844551086,
        0.9952999949455261
      ],
      "min": [
        0.003599999938160181,
        0.0031999999191612005
      ],
      "type": "VEC2"
    },
    {
      "bufferView": 1,
      "byteOffset": 68832,
      "componentType": 5126,
      "count": 956,
      "max": [
        0.9937999844551086,
        0.9952999949455261
      ],
      "min": [
        0.003599999938160181,
        0.0031999999191612005
      ],
      "type": "VEC2"
    },
    {
      "bufferView": 0,
      "componentType": 5125,
      "count": 3864,
      "type": "SCALAR"
    }
  ],
  "asset": {
    "extras": {
      "author": "CAPTAAINR (https://sketchfab.com/CAPTAAINR)",
      "license": "CC-BY-4.0 (http://creativecommons.org/licenses/by/4.0/)",
      "source": "https://sketchfab.com/3d-models/vision-bd01137f611445f88950d3c35e44c6cf",
      "title": "vision"
    },
    "generator": "Sketchfab-15.8.0",
    "version": "2.0"
  },
  "bufferViews": [
    {
      "buffer": 0,
      "byteLength": 15456,
      "name": "floatBufferViews",
      "target": 34963
    },
    {
      "buffer": 0,
      "byteLength": 76480,
      "byteOffset": 15456,
      "byteStride": 8,
      "name": "floatBufferViews",
      "target": 34962
    },
    {
      "buffer": 0,
      "byteLength": 22944,
      "byteOffset": 91936,
      "byteStride": 12,
      "name": "floatBufferViews",
      "target": 34962
    }
  ],
  "buffers": [
    {
      "byteLength": 114880,
      "uri": "scene.bin"
    }
  ],
  "images": [
    {
      "uri": "textures/Vision_clothes_baseColor.png"
    }
  ],
  "materials": [
    {
      "doubleSided": true,
      "name": "Vision_clothes",
      "pbrMetallicRoughness": {
        "baseColorTexture": {
          "index": 0
        },
        "metallicFactor": 0.0,
        "roughnessFactor": 0.6
      }
    }
  ],
  "meshes": [
    {
      "name": "Vision_Vision_clothes_0",
      "primitives": [
        {
          "attributes": {
            "NORMAL": 1,
            "POSITION": 0,
            "TEXCOORD_0": 2,
            "TEXCOORD_1": 3,
            "TEXCOORD_2": 4,
            "TEXCOORD_3": 5,
            "TEXCOORD_4": 6,
            "TEXCOORD_5": 7,
            "TEXCOORD_6": 8,
            "TEXCOORD_7": 9,
            "TEXCOORD_8": 10,
            "TEXCOORD_9": 11
          },
          "indices": 12,
          "material": 0,
          "mode": 4
        }
      ]
    }
  ],
  "nodes": [
    {
      "children": [
        1
      ],
      "matrix": [
        1.0,
        0.0,
        0.0,
        0.0,
        0.0,
        2.220446049250313e-16,
        -1.0,
        0.0,
        0.0,
        1.0,
        2.220446049250313e-16,
        0.0,
        0.0,
        0.0,
        0.0,
        1.0
      ],
      "name": "Sketchfab_model"
    },
    {
      "children": [
        2
      ],
      "matrix": [
        0.009999999776482582,
        0.0,
        0.0,
        0.0,
        0.0,
        0.0,
        0.009999999776482582,
        0.0,
        0.0,
        -0.009999999776482582,
        0.0,
        0.0,
        0.0,
        0.0,
        0.0,
        1.0
      ],
      "name": "ebb81782181941ffae6f8674276b30af.fbx"
    },
    {
      "children": [
        3
      ],
      "name": "RootNode"
    },
    {
      "children": [
        4
      ],
      "name": "Vision"
    },
    {
      "mesh": 0,
      "name": "Vision_Vision_clothes_0"
    }
  ],
  "samplers": [
    {
      "magFilter": 9729,
      "minFilter": 9987,
      "wrapS": 10497,
      "wrapT": 10497
    }
  ],
  "scene": 0,
  "scenes": [
    {
      "name": "Sketchfab_Scene",
      "nodes": [
        0
      ]
    }
  ],
  "textures": [
    {
      "sampler": 0,
      "source": 0
    }
  ]
}
