{
  "accessors": [
    {
      "bufferView": 2,
      "componentType": 5126,
      "count": 65534,
      "max": [
        4.316346168518066,
        6.733992099761963,
        7.510336875915527
      ],
      "min": [
        -4.357563018798828,
        -6.58050012588501,
        -5.8078293800354
      ],
      "type": "VEC3"
    },
    {
      "bufferView": 2,
      "byteOffset": 786408,
      "componentType": 5126,
      "count": 65534,
      "max": [
        1.0,
        1.0,
        0.9995917677879333
      ],
      "min": [
        -0.9999966621398926,
        -1.0,
        -0.9992450475692749
      ],
      "type": "VEC3"
    },
    {
      "bufferView": 1,
      "componentType": 5126,
      "count": 65534,
      "max": [
        0.9999702572822571,
        0.9999408721923828
      ],
      "min": [
        0.000372209120541811,
        6.348464376060292e-05
      ],
      "type": "VEC2"
    },
    {
      "bufferView": 0,
      "componentType": 5125,
      "count": 98664,
      "type": "SCALAR"
    },
    {
      "bufferView": 2,
      "byteOffset": 1572816,
      "componentType": 5126,
      "count": 65532,
      "max": [
        4.357563018798828,
        6.733991622924805,
        7.510336875915527
      ],
      "min": [
        -4.276871681213379,
        -6.58050012588501,
        -5.8078293800354
      ],
      "type": "VEC3"
    },
    {
      "bufferView": 2,
      "byteOffset": 2359200,
      "componentType": 5126,
      "count": 65532,
      "max": [
        1.0,
        1.0,
        1.0
      ],
      "min": [
        -1.0,
        -1.0,
        -1.0
      ],
      "type": "VEC3"
    },
    {
      "bufferView": 1,
      "byteOffset": 524272,
      "componentType": 5126,
      "count": 65532,
      "max": [
        0.9999629855155945,
        0.9999492168426514
      ],
      "min": [
        9.205760579789057e-05,
        6.522128387587145e-05
      ],
      "type": "VEC2"
    },
    {
      "bufferView": 0,
      "byteOffset": 394656,
      "componentType": 5125,
      "count": 96447,
      "type": "SCALAR"
    },
    {
      "bufferView": 2,
      "byteOffset": 3145584,
      "componentType": 5126,
      "count": 65532,
      "max": [
        4.29508113861084,
        6.510709285736084,
        6.7934370040893555
      ],
      "min": [
        -4.29508113861084,
        -6.512562274932861,
        -5.7635064125061035
      ],
      "type": "VEC3"
    },
    {
      "bufferView": 2,
      "byteOffset": 3931968,
      "componentType": 5126,
      "count": 65532,
      "max": [
        1.0,
        0.9997430443763733,
        1.0
      ],
      "min": [
        -1.0,
        -1.0,
        -1.0
      ],
      "type": "VEC3"
    },
    {
      "bufferView": 1,
      "byteOffset": 1048528,
      "componentType": 5126,
      "count": 65532,
      "max": [
        0.9999638199806213,
        0.9999362826347351
      ],
      "min": [
        4.4168726162752137e-05,
        4.7913537855492905e-05
      ],
      "type": "VEC2"
    },
    {
      "bufferView": 0,
      "byteOffset": 780444,
      "componentType": 5125,
      "count": 130017,
      "type": "SCALAR"
    },
    {
      "bufferView": 2,
      "byteOffset": 4718352,
      "componentType": 5126,
      "count": 26248,
      "max": [
        4.290785789489746,
        6.3988542556762695,
        6.7934370040893555
      ],
      "min": [
        -4.29484224319458,
        -6.512562274932861,
        -5.617502212524414
      ],
      "type": "VEC3"
    },
    {
      "bufferView": 2,
      "byteOffset": 5033328,
      "componentType": 5126,
      "count": 26248,
      "max": [
        1.0,
        0.9997429847717285,
        0.9991768598556519
      ],
      "min": [
        -1.0,
        -0.9997429847717285,
        -0.9976428747177124
      ],
      "type": "VEC3"
    },
    {
      "bufferView": 1,
      "byteOffset": 1572784,
      "componentType": 5126,
      "count": 26248,
      "max": [
        0.9999371767044067,
        0.9998162388801575
      ],
      "min": [
        0.00018067608471028507,
        7.935496978461742e-05
      ],
      "type": "VEC2"
    },
    {
      "bufferView": 0,
      "byteOffset": 1300512,
      "componentType": 5125,
      "count": 54978,
      "type": "SCALAR"
    }
  ],
  "asset": {
    "extras": {
      "author": "atomicwest (https://sketchfab.com/atomicwest)",
      "license": "CC-BY-4.0 (http://creativecommons.org/licenses/by/4.0/)",
      "source": "https://sketchfab.com/3d-models/black-panther-helmet-cdee4107d59542268641b2949efc5dc3",
      "title": "Black Panther helmet"
    },
    "generator": "Sketchfab-12.67.0",
    "version": "2.0"
  },
  "bufferViews": [
    {
      "buffer": 0,
      "byteLength": 1520424,
      "name": "floatBufferViews",
      "target": 34963
    },
    {
      "buffer": 0,
      "byteLength": 1782768,
      "byteOffset": 1520424,
      "byteStride": 8,
      "name": "floatBufferViews",
      "target": 34962
    },
    {
      "buffer": 0,
      "byteLength": 5348304,
      "byteOffset": 3303192,
      "byteStride": 12,
      "name": "floatBufferViews",
      "target": 34962
    }
  ],
  "buffers": [
    {
      "byteLength": 8651496,
      "uri": "scene.bin"
    }
  ],
  "images": [
    {
      "uri": "textures/blackpantherhelmet_baseColor.png"
    }
  ],
  "materials": [
    {
      "doubleSided": true,
      "name": "blackpantherhelmet",
      "pbrMetallicRoughness": {
        "baseColorTexture": {
          "index": 0
        },
        "metallicFactor": 0.5854894085962895,
        "roughnessFactor": 0.14520008892041714
      }
    }
  ],
  "meshes": [
    {
      "name": "bp-helmet_blackpantherhelmet_0",
      "primitives": [
        {
          "attributes": {
            "NORMAL": 1,
            "POSITION": 0,
            "TEXCOORD_0": 2
          },
          "indices": 3,
          "material": 0,
          "mode": 4
        }
      ]
    },
    {
      "name": "bp-helmet_blackpantherhelmet_0",
      "primitives": [
        {
          "attributes": {
            "NORMAL": 5,
            "POSITION": 4,
            "TEXCOORD_0": 6
          },
          "indices": 7,
          "material": 0,
          "mode": 4
        }
      ]
    },
    {
      "name": "bp-helmet_blackpantherhelmet_0",
      "primitives": [
        {
          "attributes": {
            "NORMAL": 9,
            "POSITION": 8,
            "TEXCOORD_0": 10
          },
          "indices": 11,
          "material": 0,
          "mode": 4
        }
      ]
    },
    {
      "name": "bp-helmet_blackpantherhelmet_0",
      "primitives": [
        {
          "attributes": {
            "NORMAL": 13,
            "POSITION": 12,
            "TEXCOORD_0": 14
          },
          "indices": 15,
          "material": 0,
          "mode": 4
        }
      ]
    }
  ],
  "nodes": [
    {
      "children": [
        1
      ],
      "matrix": [
        -0.610301673412323,
        1.7589687353007774e-16,
        -0.7921690940856934,
        0.0,
        -0.7921690940856934,
        -1.3551419395792474e-16,
        0.610301673412323,
        0.0,
        0.0,
        1.0,
        2.220446049250313e-16,
        0.0,
        -12.626312255859375,
        1.0572837694136181e-05,
        68.43955993652344,
        1.0
      ],
      "name": "Sketchfab_model"
    },
    {
      "children": [
        2
      ],
      "matrix": [
        1.0,
        0.0,
        0.0,
        0.0,
        0.0,
        0.0,
        1.0,
        0.0,
        0.0,
        -1.0,
        0.0,
        0.0,
        0.0,
        0.0,
        0.0,
        1.0
      ],
      "name": "blackpanther-helmet_lowpoly_1mat_smooth.fbx"
    },
    {
      "children": [
        3
      ],
      "name": "RootNode"
    },
    {
      "children": [
        4,
        5,
        6,
        7
      ],
      "matrix": [
        113.47796630859375,
        0.0,
        0.0,
        0.0,
        0.0,
        99.9999999999999,
        4.371138828673792e-06,
        0.0,
        0.0,
        -4.371138828673792e-06,
        99.9999999999999,
        0.0,
        0.0,
        -65.0806655883789,
        0.0,
        1.0
      ],
      "name": "bp-helmet"
    },
    {
      "mesh": 0,
      "name": "bp-helmet_blackpantherhelmet_0"
    },
    {
      "mesh": 1,
      "name": "bp-helmet_blackpantherhelmet_0"
    },
    {
      "mesh": 2,
      "name": "bp-helmet_blackpantherhelmet_0"
    },
    {
      "mesh": 3,
      "name": "bp-helmet_blackpantherhelmet_0"
    }
  ],
  "samplers": [
    {
      "magFilter": 9729,
      "minFilter": 9987,
      "wrapS": 10497,
      "wrapT": 10497
    }
  ],
  "scene": 0,
  "scenes": [
    {
      "name": "Sketchfab_Scene",
      "nodes": [
        0
      ]
    }
  ],
  "textures": [
    {
      "sampler": 0,
      "source": 0
    }
  ]
}
